<?xml version="1.0" encoding="UTF-8" standalone="no"?> <!-- Created with Vectornator for iOS (http://vectornator.io/) --><!DOCTYPE svg PUBLIC "-//W3C//DTD SVG 1.1//EN" "http://www.w3.org/Graphics/SVG/1.1/DTD/svg11.dtd">
<svg style="fill-rule:evenodd;clip-rule:evenodd;stroke-linecap:round;stroke-linejoin:round;" xmlns:vectornator="http://vectornator.io" xmlns:xlink="http://www.w3.org/1999/xlink" xmlns="http://www.w3.org/2000/svg" xml:space="preserve" version="1.1" viewBox="0 0 512 512">
<metadata>
<vectornator:setting key="DynamicGuides" value="1"/>
<vectornator:setting key="Units" value="Points"/>
<vectornator:setting key="GuidesVisible" value="1"/>
<vectornator:setting key="RulersVisible" value="1"/>
<vectornator:setting key="SnapToGuides" value="1"/>
<vectornator:setting key="GridSpacing" value="36"/>
</metadata>
<defs/>
<g id="Untitled" vectornator:layerName="Untitled">
<path d="M474.157+428.164L474.157+428.164C474.157+417.14+465.219+408.203+454.196+408.203L419.378+408.203C408.354+408.203+399.417+417.14+399.417+428.164L399.417+428.164C399.417+439.188+408.354+448.125+419.378+448.125L454.196+448.125C465.22+448.125+474.157+439.188+474.157+428.164Z" fill-rule="evenodd" fill="#4e3607" opacity="1"/>
<g opacity="1">
<path d="M286.031+356.184C285.263+357.313+284.457+358.414+283.62+359.49C289.241+366.714+296.371+372.699+304.544+376.975C296.958+371.494+290.615+364.398+286.031+356.184Z" fill-rule="evenodd" fill="#9c470a" opacity="1"/>
<path d="M441.643+178.535C445.192+169.856+447.162+160.363+447.162+150.408C447.162+109.324+413.857+76.019+372.773+76.019C363.693+76.019+354.996+77.651+346.951+80.629C342.992+58.46+330.518+39.252+313.044+26.478C291.679+42.091+277.789+67.323+277.789+95.813C277.789+112.743+282.71+128.514+291.172+141.812C260.076+154.712+238.199+185.354+238.199+221.116C238.199+250.901+253.376+277.135+276.412+292.528C272.391+300.906+270.136+310.292+270.136+320.206C270.136+335.017+275.177+348.641+283.619+359.49C284.455+358.414+285.262+357.313+286.03+356.184C290.614+364.398+296.957+371.494+304.543+376.975C315.071+384.582+327.999+389.072+341.983+389.072C362.55+389.072+380.834+379.366+392.547+364.294C397.547+357.86+401.358+350.453+403.624+342.397C404.424+342.419+405.222+342.458+406.027+342.458C453.431+342.458+491.859+304.029+491.859+256.626C491.86+221.932+471.265+192.067+441.643+178.535Z" fill-rule="evenodd" fill="#9c470a" opacity="1"/>
</g>
<path d="M277.467+116.443L312.066+116.443L312.066+116.443L312.066+502.02L312.066+502.02L277.467+502.02L277.467+502.02L277.467+116.443L277.467+116.443Z" fill-rule="evenodd" fill="#40270d" opacity="1"/>
<path d="M294.773+116.443L312.072+116.443L312.072+116.443L312.072+502.02L312.072+502.02L294.773+502.02L294.773+502.02L294.773+116.443L294.773+116.443Z" fill-rule="evenodd" fill="#4e3607" opacity="1"/>
<path d="M366.823+297.361C374.657+289.426+381.717+284.242+387.785+281.266L387.812+261.945C380.043+261.945+368.78+267.476+355.217+281.216L312.068+324.366L312.068+374.895L323.673+363.29L323.673+340.51L366.823+297.361Z" fill-rule="evenodd" fill="#40270d" opacity="1"/>
<path d="M387.785+281.268C381.716+284.243+374.657+289.426+366.823+297.363L323.674+340.512L323.674+363.292L387.761+299.205L387.785+281.268Z" fill-rule="evenodd" fill="#4e3607" opacity="1"/>
<path d="M238.199+249.513L242.025+268.519L277.469+268.519L277.469+249.513L238.199+249.513Z" fill-rule="evenodd" fill="#40270d" opacity="1"/>
<path d="M243.67+276.69L277.469+299.415L277.469+268.519L242.025+268.519L243.67+276.69Z" fill-rule="evenodd" fill="#4e3607" opacity="1"/>
<g opacity="1">
<path d="M131.153+384.008C125.834+393.554+117.938+401.467+108.406+406.805C116.898+411.556+126.681+414.275+137.104+414.275C145.243+414.275+152.992+412.617+160.04+409.63C147.821+404.499+137.662+395.431+131.153+384.008Z" fill-rule="evenodd" fill="#cfba35" opacity="1"/>
<path d="M238.199+279.663C238.199+241+206.856+209.657+168.193+209.657C165.267+209.657+162.39+209.858+159.559+210.206C164.935+202.752+168.113+193.604+168.113+183.712C168.113+169.556+161.625+156.917+151.463+148.601C141.301+156.919+134.813+169.556+134.813+183.712C134.813+190.074+136.128+196.126+138.493+201.62C98.953+202.881+67.28+235.309+67.28+275.155C67.28+292.337+73.184+308.131+83.052+320.654C70.428+331.453+62.414+347.488+62.414+365.404C62.414+387.498+74.591+406.738+92.592+416.81C102.123+411.471+110.02+403.559+115.339+394.013C121.848+405.436+132.006+414.504+144.227+419.636C151.342+422.624+159.155+424.281+167.357+424.281C177.761+424.281+187.543+421.622+196.066+416.953C214.621+406.789+227.204+387.083+227.204+364.435C227.204+351.744+223.243+339.984+216.504+330.301C229.862+317.552+238.199+299.587+238.199+279.663Z" fill-rule="evenodd" fill="#cfba35" opacity="1"/>
</g>
<path d="M463.551+173.637C465.711+166.11+466.803+158.33+466.803+150.409C466.803+103.888+428.955+66.04+382.434+66.04C376.143+66.04+369.933+66.729+363.867+68.094C351.846+28.048+314.878+0+272.146+0C219.314+0+176.333+42.981+176.333+95.813C176.333+114.047+181.5+131.806+191.275+147.17C194.234+151.819+200.403+153.192+205.054+150.233C209.704+147.274+211.075+141.105+208.117+136.454C200.382+124.298+196.294+110.244+196.294+95.812C196.294+53.988+230.322+19.96+272.146+19.96C308.935+19.96+340.326+46.213+346.787+82.383C347.307+85.293+349.089+87.822+351.654+89.292C354.22+90.76+357.305+91.015+360.076+89.989C367.227+87.342+374.748+86+382.431+86C417.946+86+446.839+114.894+446.839+150.408C446.839+158.813+445.232+167.005+442.062+174.757C440.035+179.713+442.282+185.386+447.153+187.612C474.116+199.93+491.538+227.018+491.538+256.624C491.538+266.498+489.072+278.083+484.943+287.614C481.384+295.829+475.768+302.928+475.711+302.999C472.276+307.301+472.971+313.573+477.269+317.017C479.111+318.492+481.315+319.208+483.504+319.208C486.429+319.208+489.328+317.928+491.3+315.468C491.595+315.098+498.607+306.29+503.26+295.55C508.497+283.464+511.501+269.275+511.501+256.624C511.501+222.285+492.948+190.626+463.551+173.637Z" fill-rule="evenodd" fill="#000000" opacity="1"/>
<path d="M454.7+398.235C454.7+332.526+454.7+332.526+454.7+266.818C460.023+266.754+466.591+268.288+470.984+263.894C477.173+257.705+472.908+247.463+463.927+246.857C444.879+245.573+425.714+246.047+406.654+247.146C368.643+249.338+347.725+275.278+322.049+300.271C322.049+270.092+314.975+239.072+322.049+209.733C325.786+194.235+355.033+189.8+353.737+173.911C353.406+169.851+347.948+160.501+341.474+164.194C333.941+168.491+328.524+175.733+322.049+181.503C322.005+162.048+323.709+142.511+321.918+123.138C320.793+110.961+302.303+113.026+302.088+124.757C300.847+192.623+300.325+260.56+302.933+328.387C303.185+334.939+314.457+335.416+317.583+332.687C336.647+316.042+354.003+297.536+372.213+279.96C372.213+339.134+372.213+339.134+372.213+398.308C352.002+405.353+335.853+420.506+348.903+443.925C351.127+447.915+354.797+451.073+358.593+453.614C361.821+455.775+365.622+457.531+369.503+457.713C397.703+459.038+425.971+458.681+454.197+458.106C458.156+458.025+462.077+456.981+465.84+455.749C497.948+445.239+484.87+402.363+454.7+398.235ZM414.075+266.818L434.739+266.818L434.739+398.222L392.173+398.222L392.173+270.143C399.172+267.961+406.535+266.818+414.075+266.818ZM454.196+438.144L374.352+438.144C368.849+438.144+364.372+433.667+364.372+428.164C364.372+422.661+368.849+418.183+374.352+418.183L454.196+418.183C459.699+418.183+464.177+422.66+464.177+428.164C464.176+433.667+459.699+438.144+454.196+438.144Z" fill-rule="evenodd" fill="#000000" opacity="1"/>
<path d="M36.7439+239.63C37.2315+237.804+37.1759+235.959+36.6765+234.264C35.7574+231.145+33.3337+228.541+30.0356+227.517C29.9062+227.477+29.7755+227.439+29.6434+227.403L29.4384+227.348C24.1124+225.927+18.6756+229.1+17.2538+234.425C15.8327+239.745+19.028+245.229+24.3533+246.652L24.5583+246.707C29.8846+248.129+35.3223+244.956+36.7439+239.63Z" fill-rule="evenodd" fill="#000000" opacity="1"/>
<path d="M383.589+493.706L322.049+493.706L322.049+380.697L356.278+346.468C360.175+342.571+360.175+336.251+356.278+332.353C352.38+328.457+346.062+328.457+342.163+332.353L305.011+369.506C303.14+371.378+302.088+373.916+302.088+376.563L302.088+493.706L287.45+493.706L287.45+301.082C287.45+297.759+285.796+294.655+283.039+292.799L253.446+272.901C253.175+268.9+252.61+264.979+251.768+261.159L277.469+261.159C282.98+261.159+287.449+256.69+287.449+251.178L287.449+126.423C287.449+120.912+282.98+116.443+277.469+116.443C271.958+116.443+267.489+120.912+267.489+126.423L267.489+241.199L244.465+241.199C232.158+217.845+208.649+201.271+181.123+198.715C182.737+193.482+183.565+188.002+183.565+182.405C183.565+151.894+158.742+127.071+128.231+127.071C97.72+127.071+72.896+151.894+72.896+182.405C72.896+185.54+73.155+188.636+73.669+191.68C65.933+193.104+58.467+195.618+51.358+199.201C46.436+201.681+44.456+207.682+46.938+212.606C49.418+217.527+55.419+219.508+60.343+217.026C68.622+212.853+77.548+210.587+86.875+210.289C90.175+210.184+93.209+208.454+94.979+205.667C96.75+202.881+97.029+199.4+95.724+196.368C93.822+191.949+92.858+187.251+92.858+182.405C92.858+162.9+108.726+147.032+128.232+147.032C147.737+147.032+163.605+162.9+163.605+182.405C163.605+189.869+161.298+197.013+156.936+203.062C154.615+206.281+154.42+210.568+156.441+213.982C158.462+217.398+162.32+219.297+166.251+218.806C168.844+218.487+171.268+218.331+173.666+218.331C206.762+218.331+233.69+245.255+233.693+278.352C233.693+278.361+233.693+278.37+233.693+278.379C233.687+294.919+227.081+310.33+215.088+321.774C211.529+325.171+210.976+330.656+213.787+334.695C219.617+343.073+222.698+352.904+222.698+363.127C222.698+390.623+200.329+412.993+172.832+412.993C156.666+412.993+141.55+405.061+132.245+392.028L132.245+373.084L157.471+347.858L181.529+361.009C183.049+361.84+184.69+362.235+186.308+362.235C189.839+362.235+193.261+360.357+195.074+357.04C197.718+352.202+195.94+346.138+191.104+343.495L172.179+333.15L181.896+323.433C185.793+319.536+185.793+313.216+181.896+309.318C177.998+305.422+171.68+305.422+167.781+309.318L148.773+328.329C148.762+328.339+148.752+328.349+148.743+328.359L132.248+344.854L132.248+258.166C132.248+252.655+127.779+248.186+122.267+248.186C116.756+248.186+112.286+252.655+112.286+258.166L112.286+296.272L80.559+264.546C76.661+260.65+70.343+260.65+66.444+264.546C62.547+268.443+62.547+274.763+66.444+278.661L111.217+323.433C111.554+323.77+111.916+324.068+112.286+324.346L112.286+368.945C112.286+368.948+112.286+368.952+112.286+368.955L112.286+387.559C112.226+387.658+112.154+387.748+112.098+387.849C103.457+403.359+87.08+412.994+69.359+412.994C42.398+412.994+20.463+391.059+20.463+364.098C20.463+349.799+26.712+336.252+37.608+326.934C41.678+323.453+42.275+317.379+38.959+313.172C30.04+301.855+25.328+288.258+25.328+273.851C25.328+268.34+20.859+263.871+15.347+263.871C9.83499+263.871+5.36599+268.34+5.36599+273.851C5.36599+289.756+9.73599+304.907+18.08+318.164C6.815+330.724+0.498+347.027+0.498+364.098C0.498+402.066+31.387+432.955+69.355+432.955C85.199+432.955+100.27+427.473+112.282+417.892L112.282+493.706L64.375+493.706C58.864+493.706+54.394+498.175+54.394+503.686C54.394+509.197+58.863+513.666+64.375+513.666L383.59+513.666C389.101+513.666+393.57+509.197+393.57+503.686C393.57+498.175+389.1+493.706+383.589+493.706ZM132.242+419.889C143.913+428.23+158.059+432.954+172.829+432.954C211.332+432.954+242.656+401.63+242.656+363.127C242.656+351.574+239.845+340.375+234.469+330.314C243.065+320.308+248.944+308.527+251.754+295.817L267.489+306.396L267.489+493.704L132.242+493.704L132.242+419.889Z" fill-rule="evenodd" fill="#000000" opacity="1"/>
<path d="M233.555+95.813C233.555+74.534+250.867+57.221+272.147+57.221C277.658+57.221+282.127+52.752+282.127+47.24C282.127+41.728+277.658+37.259+272.147+37.259C239.861+37.259+213.594+63.526+213.594+95.812C213.594+101.323+218.063+105.793+223.574+105.793C229.086+105.793+233.555+101.324+233.555+95.813Z" fill-rule="evenodd" fill="#000000" opacity="1"/>
<path d="M406.421+150.408C406.421+155.919+410.89+160.388+416.401+160.388C421.912+160.388+426.382+155.919+426.382+150.408C426.382+126.174+406.666+106.459+382.433+106.459C376.922+106.459+372.453+110.928+372.453+116.44C372.453+121.951+376.922+126.421+382.433+126.421C395.66+126.42+406.421+137.181+406.421+150.408Z" fill-rule="evenodd" fill="#000000" opacity="1"/>
<path d="M27.0886+242.851" opacity="1" fill="#000000"/>
<path d="M20.1866+249.513L17.3457+239.872L26.8451+237.073L29.686+246.714L20.1866+249.513Z" opacity="1" fill="#000000"/>
<path stroke="#000000" stroke-width="1" d="M34.9658+223.202C34.9658+223.202+36.6784+223.112+37.1302+223.656C37.582+224.2+36.7204+224.94+36.7204+224.94C36.7204+224.94+33.7667+224.14+29.4765+229.894C25.1863+235.648+26.7776+237.628+26.7776+237.628L25.874+236.54L25.2271+237.285C25.8026+236.579+25.4207+232.61+29.2979+227.495C29.9949+226.576+30.6728+225.86+31.3032+225.3C33.3389+223.493+34.8787+223.318+34.9658+223.202Z" fill="#000000" stroke-linecap="round" opacity="1" stroke-linejoin="round"/>
<path d="M28.6925+208.811" opacity="1" fill="#000000"/>
<path d="M419.966+324.509C421.107+323.002+421.752+321.273+421.929+319.515C422.255+316.28+420.994+312.953+418.327+310.759C418.222+310.673+418.116+310.589+418.007+310.506L417.838+310.378C413.442+307.051+407.21+307.936+403.883+312.331C400.558+316.721+401.447+323.005+405.841+326.333L406.01+326.462C410.405+329.79+416.639+328.904+419.966+324.509Z" fill-rule="evenodd" fill="#000000" opacity="1"/>
<path d="M421.217+318.528" opacity="1" fill="#000000"/>
<path d="M400.903+327.409L401.912+317.41L411.765+318.404L410.756+328.404L400.903+327.409Z" opacity="1" fill="#000000"/>
<path stroke="#000000" stroke-width="1" d="M424.521+308.625C424.521+308.625+426.141+309.189+426.354+309.863C426.567+310.537+425.49+310.897+425.49+310.897C425.49+310.897+423.057+309.041+416.912+312.749C410.767+316.458+411.493+318.892+411.493+318.892L411.067+317.544L410.186+317.99C410.986+317.553+412.131+313.733+417.652+310.461C418.645+309.873+419.543+309.465+420.338+309.185C422.905+308.28+424.397+308.7+424.521+308.625Z" fill="#000000" stroke-linecap="round" opacity="1" stroke-linejoin="round"/>
<path d="M260.217+338.676C259.095+337.155+257.619+336.047+255.983+335.38C252.973+334.151+249.426+334.419+246.566+336.356C246.454+336.432+246.343+336.511+246.233+336.592L246.062+336.718C241.627+339.992+240.713+346.22+243.985+350.654C247.255+355.086+253.534+356.012+257.969+352.739L258.141+352.614C262.576+349.34+263.491+343.111+260.217+338.676Z" fill-rule="evenodd" fill="#000000" opacity="1"/>
<path d="M254.835+335.784" opacity="1" fill="#000000"/>
<path d="M257.604+357.781L248.299+353.983L252.041+344.814L261.346+348.612L257.604+357.781Z" opacity="1" fill="#000000"/>
<path stroke="#000000" stroke-width="1" d="M246.273+329.812C246.273+329.812+247.271+328.417+247.978+328.404C248.685+328.39+248.726+329.525+248.726+329.525C248.726+329.525+246.257+331.334+248.075+338.277C249.892+345.22+252.432+345.213+252.432+345.213L251.018+345.24L251.197+346.211C251.004+345.32+247.665+343.141+246.089+336.919C245.806+335.801+245.669+334.824+245.626+333.982C245.484+331.264+246.309+329.952+246.273+329.812Z" fill="#000000" stroke-linecap="round" opacity="1" stroke-linejoin="round"/>
<path d="M361.733+178.045C359.843+178.056+358.078+178.596+356.575+179.525C353.809+181.234+351.937+184.259+351.818+187.711C351.814+187.846+351.812+187.982+351.813+188.119L351.813+188.331C351.847+193.843+356.342+198.251+361.853+198.218C367.36+198.185+371.807+193.656+371.774+188.144L371.774+187.932C371.741+182.419+367.245+178.011+361.733+178.045Z" fill-rule="evenodd" fill="#000000" opacity="1"/>
<path d="M356.225+180.691" opacity="1" fill="#000000"/>
<path d="M375.634+191.409L367.084+196.692L361.878+188.267L370.428+182.984L375.634+191.409Z" opacity="1" fill="#000000"/>
<path stroke="#000000" stroke-width="1" d="M346.356+184.093C346.356+184.093+345.818+182.465+346.223+181.886C346.628+181.307+347.569+181.942+347.569+181.942C347.569+181.942+347.577+185.002+354.259+187.623C360.941+190.243+362.43+188.186+362.43+188.186L361.62+189.345L362.509+189.772C361.676+189.403+357.948+190.819+351.992+188.428C350.922+187.998+350.052+187.533+349.346+187.073C347.066+185.586+346.491+184.147+346.356+184.093Z" fill="#000000" stroke-linecap="round" opacity="1" stroke-linejoin="round"/>
</g>
</svg>
